<?xml version="1.0" standalone="no"?>
<!DOCTYPE svg PUBLIC "-//W3C//DTD SVG 20010904//EN"
 "http://www.w3.org/TR/2001/REC-SVG-20010904/DTD/svg10.dtd">
<svg version="1.0" xmlns="http://www.w3.org/2000/svg"
 width="367.000000pt" height="367.000000pt" viewBox="0 0 367.000000 367.000000"
 preserveAspectRatio="xMidYMid meet">
<metadata>
Created by potrace 1.14, written by Peter Selinger 2001-2017
</metadata>
<g transform="translate(0.000000,367.000000) scale(0.100000,-0.100000)"
fill="#000000" stroke="none">
<path d="M1025 3541 c-84 -26 -114 -66 -300 -391 -11 -20 -49 -87 -85 -149
-36 -62 -76 -131 -89 -154 -13 -23 -30 -53 -39 -67 -9 -14 -24 -38 -33 -55 -9
-16 -113 -197 -231 -401 -118 -204 -220 -386 -226 -404 -15 -43 -15 -118 0
-161 6 -19 50 -99 96 -179 47 -80 98 -170 115 -200 16 -30 38 -66 47 -80 14
-22 35 -57 127 -220 11 -19 67 -116 125 -215 57 -99 110 -189 116 -200 6 -11
38 -66 72 -123 33 -56 60 -105 60 -107 0 -10 125 -212 144 -233 12 -13 44 -36
71 -50 l50 -26 795 0 c792 -1 795 0 835 21 65 35 90 63 155 173 33 58 65 112
70 120 8 13 29 49 101 175 9 17 56 98 104 180 48 83 96 165 106 182 10 18 93
162 185 320 178 308 183 316 235 408 30 54 34 68 34 135 0 65 -4 82 -31 130
-72 126 -297 516 -304 525 -4 6 -20 32 -35 60 -15 27 -86 151 -157 275 -72
124 -139 239 -148 255 -9 17 -28 48 -41 71 -13 23 -55 96 -94 164 -80 140
-117 183 -183 213 -47 22 -51 22 -824 23 -662 0 -783 -2 -823 -15z m1329 -214
c11 -17 25 -41 31 -52 6 -11 38 -65 69 -120 32 -55 70 -120 84 -145 13 -25 28
-49 32 -55 4 -5 19 -30 32 -55 14 -25 79 -138 145 -251 66 -114 123 -213 127
-220 3 -8 16 -30 27 -49 12 -19 54 -91 94 -160 40 -69 85 -145 99 -170 63
-106 79 -152 79 -217 -1 -68 -3 -72 -180 -378 -88 -150 -153 -264 -278 -480
-54 -93 -117 -201 -140 -240 -22 -38 -44 -77 -48 -85 -4 -8 -13 -24 -20 -35
-7 -11 -48 -82 -91 -158 -44 -75 -83 -137 -86 -137 -4 0 -12 10 -18 23 -17 33
-73 131 -125 220 -26 43 -47 82 -47 87 0 4 -7 13 -15 20 -22 18 -18 50 10 92
14 20 25 39 25 42 0 2 23 44 51 93 28 48 60 103 70 121 44 75 62 106 169 292
62 107 121 209 130 225 10 17 40 69 68 117 60 103 71 137 66 207 -3 49 -17 85
-62 164 -12 20 -30 52 -41 70 -10 17 -34 59 -54 92 -19 33 -45 79 -58 101 -45
79 -300 519 -310 534 -5 8 -26 46 -48 83 l-38 69 85 146 c47 81 97 168 111
195 14 26 28 47 31 47 3 0 14 -15 24 -33z m-394 -962 c51 -88 104 -180 118
-205 14 -25 48 -85 77 -135 60 -105 74 -152 63 -220 -7 -51 -37 -125 -50 -125
-5 0 -8 -4 -8 -9 0 -8 -176 -320 -210 -371 -5 -8 -28 -48 -50 -88 -23 -39 -43
-72 -44 -72 -2 0 -28 42 -57 93 -30 50 -59 101 -66 112 -7 11 -15 27 -19 35
-4 8 -17 31 -29 50 -12 19 -33 55 -47 80 -14 25 -48 83 -75 130 -60 104 -73
139 -73 200 0 66 12 94 107 258 46 79 83 146 83 149 0 4 6 14 14 22 7 9 24 36
38 61 59 112 122 210 128 203 4 -4 49 -80 100 -168z"/>
</g>
</svg>
